<svg width="30" height="31" viewBox="0 0 30 31" fill="none" xmlns="http://www.w3.org/2000/svg">
<path d="M7.7278 24.1081V25.326C7.7278 25.671 7.6113 25.9601 7.37828 26.1931C7.14445 26.4269 6.855 26.5438 6.50994 26.5438H5.29208C4.94702 26.5438 4.65798 26.4269 4.42496 26.1931C4.19113 25.9601 4.07422 25.671 4.07422 25.326V15.5831L6.63173 8.27591C6.75352 7.91055 6.97192 7.61623 7.28694 7.39296C7.60115 7.16968 7.95108 7.05804 8.33674 7.05804H21.7332C22.1189 7.05804 22.4692 7.16968 22.7842 7.39296C23.0984 7.61623 23.3164 7.91055 23.4382 8.27591L25.9957 15.5831V25.326C25.9957 25.671 25.8788 25.9601 25.645 26.1931C25.412 26.4269 25.1229 26.5438 24.7779 26.5438H23.56C23.215 26.5438 22.9259 26.4269 22.6929 26.1931C22.4591 25.9601 22.3421 25.671 22.3421 25.326V24.1081H7.7278ZM7.48423 13.1474H22.5857L21.307 9.49377H8.76299L7.48423 13.1474ZM9.5546 20.4545C10.062 20.4545 10.4932 20.2767 10.848 19.9211C11.2036 19.5663 11.3814 19.1352 11.3814 18.6277C11.3814 18.1203 11.2036 17.6892 10.848 17.3344C10.4932 16.9787 10.062 16.8009 9.5546 16.8009C9.04716 16.8009 8.61603 16.9787 8.26123 17.3344C7.90561 17.6892 7.7278 18.1203 7.7278 18.6277C7.7278 19.1352 7.90561 19.5663 8.26123 19.9211C8.61603 20.2767 9.04716 20.4545 9.5546 20.4545ZM20.5154 20.4545C21.0228 20.4545 21.4539 20.2767 21.8087 19.9211C22.1643 19.5663 22.3421 19.1352 22.3421 18.6277C22.3421 18.1203 22.1643 17.6892 21.8087 17.3344C21.4539 16.9787 21.0228 16.8009 20.5154 16.8009C20.0079 16.8009 19.5768 16.9787 19.222 17.3344C18.8664 17.6892 18.6886 18.1203 18.6886 18.6277C18.6886 19.1352 18.8664 19.5663 19.222 19.9211C19.5768 20.2767 20.0079 20.4545 20.5154 20.4545Z" fill="#611F81"/>
</svg>
