<svg width="31" height="31" viewBox="0 0 31 31" fill="none" xmlns="http://www.w3.org/2000/svg">
<path d="M20.1224 17.7289H19.1373L18.7882 17.3922C20.0524 15.9259 20.7472 14.054 20.7458 12.118C20.7458 10.5151 20.2705 8.94814 19.3799 7.61535C18.4894 6.28256 17.2236 5.24377 15.7427 4.63036C14.2618 4.01694 12.6322 3.85644 11.0601 4.16916C9.48795 4.48188 8.04385 5.25376 6.9104 6.38721C5.77696 7.52065 5.00507 8.96475 4.69235 10.5369C4.37963 12.109 4.54013 13.7386 5.15355 15.2195C5.76697 16.7004 6.80575 17.9662 8.13854 18.8567C9.47133 19.7473 11.0383 20.2226 12.6412 20.2226C14.6486 20.2226 16.494 19.4869 17.9154 18.265L18.2521 18.6141V19.5992L24.4864 25.821L26.3442 23.9632L20.1224 17.7289V17.7289ZM12.6412 17.7289C9.53653 17.7289 7.03034 15.2227 7.03034 12.118C7.03034 9.01333 9.53653 6.50715 12.6412 6.50715C15.7459 6.50715 18.2521 9.01333 18.2521 12.118C18.2521 15.2227 15.7459 17.7289 12.6412 17.7289Z" fill="#611F81"/>
</svg>
